<svg id="图层_1" data-name="图层 1" xmlns="http://www.w3.org/2000/svg" viewBox="0 0 196.24 300"><defs><style>.cls-1{fill:#e7fcf8;stroke:#e7fcf8;stroke-miterlimit:10;}.cls-2{fill:#fbf1cf;}.cls-3{fill:#e7c7af;}.cls-4{fill:#daa985;}.cls-5{fill:#d2896f;}.cls-6{fill:#ceeafb;}.cls-7{fill:#a3defe;}.cls-8{fill:#fff;}.cls-9{fill:#565e75;}.cls-10{fill:#b0ade2;}.cls-11{fill:#a78cd6;}.cls-12{fill:#fae0bd;}.cls-13{fill:#bce098;}.cls-14{fill:#99da90;}.cls-15{fill:#eda1ab;}.cls-16{fill:#e68a97;}.cls-17{fill:#e26e7e;}.cls-18{fill:#f6b88e;}.cls-19{fill:#e88f72;}</style></defs><title>画板 1</title><rect class="cls-1" width="196.24" height="300"/><path class="cls-2" d="M53.89,161.43a3.41,3.41,0,1,0-5.88,1.9,4.41,4.41,0,1,0,6.28-.91,1.08,1.08,0,0,1-.4-1Z"/><path class="cls-3" d="M38.33,174.56l-6.62-6.62a3.75,3.75,0,0,1,0-5.3L38.33,156a3.77,3.77,0,0,1,5.31,0l6.62,6.63a3.75,3.75,0,0,1,0,5.3l-6.62,6.62A3.77,3.77,0,0,1,38.33,174.56Z"/><path class="cls-4" d="M41,165.29l-4,4-3.08-3.08a1.24,1.24,0,0,1,0-1.76L37,161.32Z"/><path class="cls-4" d="M48,166.17,45,169.25l-4-4,4-4L48,164.41A1.24,1.24,0,0,1,48,166.17Z"/><path class="cls-5" d="M41,165.29l4,4-3.09,3.08a1.23,1.23,0,0,1-1.75,0L37,169.25Z"/><path class="cls-5" d="M41.86,158.24,45,161.32l-4,4-4-4,3.09-3.08a1.23,1.23,0,0,1,1.75,0Z"/><path class="cls-4" d="M51.66,187a1.55,1.55,0,0,1,0-3.09c5.63,0,9.87-2.62,9.87-6.09a3.56,3.56,0,0,0-6.94-1.13,1.55,1.55,0,0,1-2.94-1,6.66,6.66,0,0,1,13,2.11,8.09,8.09,0,0,1-3.88,6.71A16.33,16.33,0,0,1,51.66,187Z"/><path class="cls-5" d="M57.31,185l.3-2.19a14.74,14.74,0,0,1-6,1.16,1.55,1.55,0,0,0,0,3.09,19,19,0,0,0,5.38-.75,9.82,9.82,0,0,0,.27-1.31Z"/><path class="cls-5" d="M51.65,175.75a1.55,1.55,0,0,0,2.94,1A3.55,3.55,0,0,1,58,174.29a3.16,3.16,0,0,1,.76.09l.34-2.51a5.46,5.46,0,0,0,0-.57,7.11,7.11,0,0,0-1.14-.1,6.66,6.66,0,0,0-6.32,4.55Z"/><path class="cls-6" d="M48.43,190H38.65a6.18,6.18,0,0,1-6.13-5.36L30.77,171.5a2,2,0,0,1,2-2.29H54.31a2,2,0,0,1,2,2.29l-1.76,13.11A6.18,6.18,0,0,1,48.43,190Z"/><path class="cls-7" d="M32.77,169.21a2,2,0,0,0-2,2.29l1.75,13.11A6.18,6.18,0,0,0,38.65,190h3.11c-3.84-3.77-5.24-13.59-4.93-20.76Z"/><path class="cls-4" d="M32.62,185.15a6.19,6.19,0,0,0,6,4.82h9.78a6.18,6.18,0,0,0,6-4.82Z"/><path class="cls-7" d="M55.78,190H31.3a1.13,1.13,0,0,0-1,1.66l.35.65a3.94,3.94,0,0,0,3.47,2.08H53a3.94,3.94,0,0,0,3.47-2.08l.35-.65a1.13,1.13,0,0,0-1-1.66Z"/><ellipse class="cls-8" cx="37.23" cy="181.12" rx="2.33" ry="1.86"/><ellipse class="cls-8" cx="49.85" cy="181.12" rx="2.33" ry="1.86"/><path class="cls-9" d="M43.54,179.15c-.92,0-1.75-.62-2.26.14s.65,2,2.26,2,2.79-1.21,2.27-2S44.46,179.15,43.54,179.15Z"/><path class="cls-5" d="M38.65,190h3.11a13.14,13.14,0,0,1-2.83-4.82H32.62a6.19,6.19,0,0,0,6,4.82Z"/><path d="M43.54,178.55c-.78,0-2-.73-2.76.41a1.41,1.41,0,0,0,0,1.47,3.44,3.44,0,0,0,5.6,0,1.41,1.41,0,0,0,0-1.47C45.53,177.82,44.32,178.55,43.54,178.55Zm0,2.13c-1.25,0-1.93-.82-1.77-1.05s.16-.17.77,0a3.64,3.64,0,0,0,2,0c.63-.14.68-.11.77,0s-.52,1.05-1.77,1.05ZM40,178.29a.59.59,0,0,0-.84.06.77.77,0,0,1-1.15,0,.6.6,0,0,0-.9.78,2,2,0,0,0,3,0A.59.59,0,0,0,40,178.29Zm16.87-7.6a2.61,2.61,0,0,0-1.31-1.75,5,5,0,0,0-.9-7,.47.47,0,0,1-.18-.44,4,4,0,0,0-.44-2.38.6.6,0,0,0-.81-.24.58.58,0,0,0-.24.8,2.85,2.85,0,0,1,.31,1.67,1.67,1.67,0,0,0,.63,1.53,3.81,3.81,0,0,1,.33,5.73H50.42l.26-.26a4.35,4.35,0,0,0,0-6.15l-2.61-2.6a2.84,2.84,0,0,1,3.14-1.32.59.59,0,0,0,.72-.43.61.61,0,0,0-.43-.73,4,4,0,0,0-4.29,1.62l-3.15-3.16a4.36,4.36,0,0,0-6.15,0l-6.62,6.62a4.36,4.36,0,0,0,0,6.15l.47.46a2.61,2.61,0,0,0-1.58,2.76l1.75,13.11a6.76,6.76,0,0,0,2.9,4.68H31.3a1.73,1.73,0,0,0-1.52,2.55l.35.65a4.52,4.52,0,0,0,4,2.38h2.57a.6.6,0,1,0,0-1.19H34.12A3.32,3.32,0,0,1,31.18,192l-.35-.65a.54.54,0,0,1,.47-.79H55.78a.54.54,0,0,1,.47.79l-.35.65A3.32,3.32,0,0,1,53,193.76H39.53a.6.6,0,0,0,0,1.19H53a4.52,4.52,0,0,0,4-2.38l.35-.65a1.73,1.73,0,0,0-1.52-2.55H52.26a7,7,0,0,0,1.84-1.88,15.84,15.84,0,0,0,7-2.43,8.68,8.68,0,0,0,4.14-7.2,7.26,7.26,0,0,0-8.35-7.17Zm-.47,4.64a3,3,0,0,1,4.54,2.53,4.25,4.25,0,0,1-1.69,3.23,9.7,9.7,0,0,1-3.86,1.83ZM32.13,163.06l6.62-6.62a3.15,3.15,0,0,1,4.47,0l6.62,6.62a3.16,3.16,0,0,1,0,4.46l-1.1,1.1H46.42l2-2a1.83,1.83,0,0,0,0-2.6l-6.17-6.17a1.82,1.82,0,0,0-2.59,0L33.52,164a1.83,1.83,0,0,0,0,2.6l2,2H33.23l-1.1-1.1A3.16,3.16,0,0,1,32.13,163.06Zm8,2.23L37,168.41l-2.66-2.67a.65.65,0,0,1,0-.91L37,162.17Zm-2.28-4,2.67-2.66a.65.65,0,0,1,.91,0l2.67,2.66L41,164.44ZM41,166.13l2.49,2.49h-5Zm.85-.84L45,162.17l2.66,2.66a.65.65,0,0,1,0,.91L45,168.41Zm6.6,24.08H38.65a5.6,5.6,0,0,1-5.23-3.63H53.66a5.6,5.6,0,0,1-5.23,3.63Zm5.66-5.77h0c0,.27-.1.73-.12.94H33.12c0-.22-1.16-8.65-1.76-13.13a1.42,1.42,0,0,1,1.41-1.61H54.31a1.43,1.43,0,0,1,1.42,1.61Zm6.32.47a14.09,14.09,0,0,1-5.64,2.13,9,9,0,0,0,.45-2c4.21-.9,6.91-3.35,6.91-6.32a4.17,4.17,0,0,0-5.54-3.93l.27-2a6.07,6.07,0,0,1,7.17,6,7.51,7.51,0,0,1-3.62,6.21Zm-10.49-5.78a.59.59,0,0,0-.84.06.77.77,0,0,1-.58.26.74.74,0,0,1-.58-.26.6.6,0,1,0-.9.78,2,2,0,0,0,2.95,0A.6.6,0,0,0,49.92,178.29Z"/><path class="cls-10" d="M116.53,186.17a1.41,1.41,0,1,1,.31-2.8c1.12.12,3.88.26,5.39-1.09a3.81,3.81,0,0,0,1.12-3,3.58,3.58,0,0,0-6.81-1.54,1.41,1.41,0,0,1-2.55-1.22,6.4,6.4,0,0,1,12.18,2.76c0,5.4-4.31,7.49-9.64,6.9Z"/><path class="cls-11" d="M116.84,183.37a1.41,1.41,0,1,0-.31,2.8,14.23,14.23,0,0,0,2.24.09c.16-.89.28-1.85.39-2.86a13,13,0,0,1-2.32,0Z"/><path class="cls-11" d="M114.66,178.39a1.41,1.41,0,0,0,1.88-.66,3.6,3.6,0,0,1,3.23-2,4.07,4.07,0,0,1,.61.05c.15-.53.31-1.06.5-1.58l.41-1.11a6.36,6.36,0,0,0-7.3,3.46A1.42,1.42,0,0,0,114.66,178.39Z"/><path class="cls-2" d="M107.05,163.91a4.88,4.88,0,1,0-4.72,7.13,5.24,5.24,0,1,0,5.81-6.36A1.45,1.45,0,0,1,107.05,163.91Z"/><circle class="cls-12" cx="112.39" cy="160.49" r="2.51"/><path class="cls-2" d="M118.48,173.29c-3,8.16-.58,16.42-5.62,16.42H100.65c-5,0-2.66-8.26-5.62-16.42Z"/><path class="cls-12" d="M95,173.29c3,8.16.58,16.42,5.62,16.42h3.95c-3.34-2.77-3.54-13.1-3.2-16.42Z"/><path class="cls-10" d="M118.71,169.77H94.8a1.76,1.76,0,1,0,0,3.52h23.91a1.76,1.76,0,1,0,0-3.52Z"/><path class="cls-11" d="M118.48,191.49c-.22.3-.43.61-.62.92a3.62,3.62,0,0,1-3.13,1.82h-16a3.62,3.62,0,0,1-3.13-1.82c-.19-.31-.4-.62-.62-.92a1.11,1.11,0,0,1,.88-1.78H117.6a1.11,1.11,0,0,1,.88,1.78Z"/><path class="cls-13" d="M103.41,179.48h-2.87A1.55,1.55,0,0,1,99,177.93v-2.51a2.33,2.33,0,0,1,.31-1.15l.65-1.16a1.1,1.1,0,0,1,1-.56h2.17a1.11,1.11,0,0,1,1,.56l.65,1.16a2.32,2.32,0,0,1,.3,1.15v2.51a1.54,1.54,0,0,1-1.55,1.55Z"/><path class="cls-14" d="M101.15,172.55h-.26a1.1,1.1,0,0,0-1,.56l-.65,1.16a2.33,2.33,0,0,0-.31,1.15v2.51a1.55,1.55,0,0,0,1.56,1.55h2c-1.11-1.08-1.66-3.55-1.35-6.93Z"/><ellipse class="cls-15" cx="101.04" cy="185.76" rx="2.11" ry="1.68"/><ellipse class="cls-15" cx="112.47" cy="185.76" rx="2.11" ry="1.68"/><path d="M120.84,172.4a2.31,2.31,0,0,0-2.13-3.18h-5.54a5.78,5.78,0,0,0-5-5.08.9.9,0,0,1-.68-.48,5.41,5.41,0,0,0-7.8-2,.56.56,0,0,0-.16.76.55.55,0,0,0,.76.15,4.33,4.33,0,0,1,6.23,1.61,2,2,0,0,0,1.5,1.06,4.69,4.69,0,0,1,4,4H99.65a4.29,4.29,0,0,1-.83-4.92.55.55,0,0,0-.26-.73.54.54,0,0,0-.73.25,5.41,5.41,0,0,0,.41,5.4H94.8a2.31,2.31,0,0,0-.16,4.61c2.22,6.47,1.14,12.79,3.38,15.33H95.91a1.66,1.66,0,0,0-1.32,2.66,6.85,6.85,0,0,1,.58.86,4.2,4.2,0,0,0,3.61,2.1h11.15a.55.55,0,0,0,0-1.09H98.78a3.1,3.1,0,0,1-2.66-1.56,9.3,9.3,0,0,0-.66-1,.56.56,0,0,1,.45-.9H117.6a.56.56,0,0,1,.45.9,9.3,9.3,0,0,0-.66,1,3.1,3.1,0,0,1-2.66,1.56h-2.2a.55.55,0,0,0,0,1.09h2.2a4.2,4.2,0,0,0,3.61-2.1,6.85,6.85,0,0,1,.58-.86,1.66,1.66,0,0,0-1.32-2.66h-2.11a5.66,5.66,0,0,0,1.13-2.43c2.74.28,5.81-.1,7.87-1.95a7.27,7.27,0,0,0-3.65-12.38Zm-18.32-2.08h16.19a1.21,1.21,0,1,1,0,2.42H104.42a1.62,1.62,0,0,0-1.36-.73h-.54Zm1.9,5.1v2.51a1,1,0,0,1-1,1h-2.87a1,1,0,0,1-1-1v-2.51a1.81,1.81,0,0,1,.23-.88l.66-1.16a.53.53,0,0,1,.47-.28h2.17a.56.56,0,0,1,.47.28l.65,1.16a1.71,1.71,0,0,1,.24.88Zm-10.83-3.89a1.21,1.21,0,0,1,1.21-1.21h6.63V172h-.54a1.65,1.65,0,0,0-1.37.73H94.8A1.21,1.21,0,0,1,93.59,171.53Zm21.66,15.92a2.33,2.33,0,0,1-2.39,1.71H100.65a2.33,2.33,0,0,1-2.39-1.71c-1.09-2.71-.68-8.13-2.47-13.62H98.9l-.09.17a3,3,0,0,0-.37,1.42v2.51a2.1,2.1,0,0,0,2.1,2.1h2.87a2.1,2.1,0,0,0,2.1-2.1v-2.51a3,3,0,0,0-.37-1.42l-.1-.17h12.68C115.93,179.32,116.34,184.75,115.25,187.45Zm2.81-10.68a3.11,3.11,0,0,1,1.71-.53,3,3,0,0,1,3,3,3.28,3.28,0,0,1-.94,2.6c-.33.31-1.65,1.25-4.66,1A56.62,56.62,0,0,1,118.06,176.77Zm5.7,7.2c-1.53,1.37-4,2-6.92,1.69.09-.54.17-1.11.24-1.72,1.82.16,4.14,0,5.51-1.25a4.32,4.32,0,0,0,1.31-3.42,4.13,4.13,0,0,0-4.13-4.13,4,4,0,0,0-1.37.24c.14-.51.29-1,.47-1.55a2.35,2.35,0,0,0,1.16-.41,5.88,5.88,0,0,1,5.6,5.85,6,6,0,0,1-1.87,4.7Zm-11.38-20.42a3.06,3.06,0,1,0-3.06-3.06A3.06,3.06,0,0,0,112.38,163.55Zm0-5a2,2,0,1,1-2,2A2,2,0,0,1,112.38,158.53Zm-4.2,26.17a.54.54,0,0,0-.77.05.89.89,0,0,1-.66.3.87.87,0,0,1-.65-.3.55.55,0,0,0-.82.72,2,2,0,0,0,3,0A.54.54,0,0,0,108.18,184.7Zm-5.91-2.31a1.54,1.54,0,0,0-1.55,1.55.55.55,0,0,0,1.09,0,.46.46,0,0,1,.46-.46.45.45,0,0,1,.45.46.55.55,0,0,0,1.1,0,1.55,1.55,0,0,0-1.55-1.55Zm9,0a1.55,1.55,0,0,0-1.55,1.55.55.55,0,0,0,1.1,0,.45.45,0,0,1,.45-.46.46.46,0,0,1,.46.46.55.55,0,0,0,1.09,0,1.54,1.54,0,0,0-1.55-1.55Z"/><path class="cls-13" d="M175.34,188.44a2.55,2.55,0,0,1-3.61-3.6c1-1,3.93-2.31,4.92-1.32S176.33,187.45,175.34,188.44Z"/><path class="cls-6" d="M168.58,194.47h-9.91a1.7,1.7,0,0,1-1.7-1.7v-3.06h13.31v3.06A1.7,1.7,0,0,1,168.58,194.47Z"/><path class="cls-6" d="M173.66,172.81c0-4.84-4.5-8.77-10-8.77s-10,3.93-10,8.77Z"/><path class="cls-7" d="M153.59,172.81h20.07a7.7,7.7,0,0,0-.68-3.16H154.26A7.85,7.85,0,0,0,153.59,172.81Z"/><path class="cls-16" d="M168.7,191.71H158.54a3.36,3.36,0,0,1-3.33-3l-1.5-14h19.82l-1.5,14a3.35,3.35,0,0,1-3.33,3Z"/><path class="cls-17" d="M153.93,176.8h19.38l.22-2.06H153.71Z"/><path class="cls-17" d="M172.51,184.26a5.16,5.16,0,0,0-4,1.58,9.94,9.94,0,0,0-2.9,5.07,7.6,7.6,0,0,0-.1.8h3.16a3.35,3.35,0,0,0,3.33-3Z"/><path class="cls-18" d="M170.6,187a4.33,4.33,0,0,0-2.17.57,1,1,0,0,1-1.16-.09,5.45,5.45,0,0,0-6.35,0,1.06,1.06,0,0,1-1.17.09,4.39,4.39,0,0,0-4.63.19l.09.92a3.36,3.36,0,0,0,3.33,3h10.17a3.35,3.35,0,0,0,3.32-3l.15-1.39a4.31,4.31,0,0,0-1.58-.29Z"/><path class="cls-13" d="M164.45,161.36h-1.66a.45.45,0,0,0-.45.45v6.81h2.57v-6.81A.45.45,0,0,0,164.45,161.36Z"/><path class="cls-16" d="M170.75,172.1a3.67,3.67,0,0,0-3.73-3.67.69.69,0,0,1-.53-.25,3.66,3.66,0,0,0-5.74,0,.67.67,0,0,1-.53.25,3.67,3.67,0,0,0-3.73,3.67Z"/><path class="cls-6" d="M174.56,171.71H152.69a1.13,1.13,0,0,0-1.13,1.12v.79a1.13,1.13,0,0,0,1.13,1.12h21.87a1.12,1.12,0,0,0,1.12-1.12v-.79A1.12,1.12,0,0,0,174.56,171.71Z"/><path class="cls-7" d="M165.64,190.91a6.08,6.08,0,0,0,.36,3.56h2.58a1.7,1.7,0,0,0,1.7-1.7v-3.06H166a8.93,8.93,0,0,0-.33,1.2Z"/><path class="cls-19" d="M172.18,187.33a4.53,4.53,0,0,0-1.58-.29,4.33,4.33,0,0,0-2.17.57,1,1,0,0,1-1.16-.09l-.1-.07a8.9,8.9,0,0,0-1.53,3.46,7.6,7.6,0,0,0-.1.8h3.16a3.35,3.35,0,0,0,3.33-3Z"/><path class="cls-16" d="M175.21,188.16c1.62,1.62,2.09,3.5.62,5-2.52,2.53-5.33,3-7,1.36s-1.17-4.43,1.36-7c1.46-1.46,3.35-1,5,.63Z"/><path class="cls-8" d="M163.31,184.36a.86.86,0,0,1-.85-.85v-2.09h1.7v2.09A.85.85,0,0,1,163.31,184.36Z"/><ellipse class="cls-15" cx="158.17" cy="181.8" rx="2.01" ry="1.6"/><ellipse class="cls-15" cx="169.08" cy="181.8" rx="2.01" ry="1.6"/><path class="cls-9" d="M165.25,180.57c0-1-.73-1.1-1.63-1.1s-1.62.1-1.62,1.1a1.63,1.63,0,1,0,3.25,0Z"/><path class="cls-8" d="M166.83,180.3a2.14,2.14,0,1,1,4.28,0c0,1.18-1,.77-2.14.77S166.83,181.48,166.83,180.3Z"/><path class="cls-8" d="M160.42,180.3a2.14,2.14,0,1,0-4.28,0c0,1.18,1,.77,2.14.77S160.42,181.48,160.42,180.3Z"/><path d="M163.62,182.9a2.25,2.25,0,0,0,2.14-2.33,1.43,1.43,0,0,0-.76-1.39,4.44,4.44,0,0,0-2.76,0,1.44,1.44,0,0,0-.75,1.39A2.24,2.24,0,0,0,163.62,182.9Zm0-2.91c1.07,0,1.11.17,1.11.58a1.12,1.12,0,1,1-2.22,0c0-.41.05-.58,1.11-.58Zm13.4,3.17c-.92-.92-2.72-.41-3.89.15l.86-8.05h.57a1.65,1.65,0,0,0,1.64-1.64v-.79a1.65,1.65,0,0,0-1.64-1.64H174a9,9,0,0,0-3.19-5.17.51.51,0,0,0-.72.07.52.52,0,0,0,.07.73,8,8,0,0,1,2.79,4.37h-1.79a4.2,4.2,0,0,0-4.16-3.28.16.16,0,0,1-.11,0,4.21,4.21,0,0,0-1.48-1.18v-2a10.56,10.56,0,0,1,2.73.84.51.51,0,0,0,.68-.24.52.52,0,0,0-.24-.69,11.5,11.5,0,0,0-3.17-1v-1.85a1,1,0,0,0-1-1h-1.66a1,1,0,0,0-1,1v1.85c-4.38.66-7.82,3.68-8.59,7.53h-.54a1.64,1.64,0,0,0-1.64,1.64v.79a1.64,1.64,0,0,0,1.64,1.64h.56c.11,1,1.39,12.92,1.45,13.52a3.83,3.83,0,0,0,1.76,2.83v1.16a2.22,2.22,0,0,0,1.35,2,.51.51,0,0,0,.67-.27.52.52,0,0,0-.27-.68,1.18,1.18,0,0,1-.73-1.09v-.69a4.11,4.11,0,0,0,1.06.14h8.88a3.93,3.93,0,0,0,.43,1.74h-7.43a.51.51,0,0,0,0,1h8.23a3.94,3.94,0,0,0,3.46.89,8.05,8.05,0,0,0,4.09-2.38c1.52-1.52,1.25-3.46-.12-5.13,1-1.31,2.11-4,.94-5.2Zm-14.17-21.29h1.55v4.48a4.25,4.25,0,0,0-1.55,0Zm3.24,6.63a1.18,1.18,0,0,0,.94.44,3.2,3.2,0,0,1,3.08,2.25h-13a3.19,3.19,0,0,1,3.08-2.25,1.17,1.17,0,0,0,.93-.44A3.15,3.15,0,0,1,166.09,168.5Zm-4.27-3.8v2a4.18,4.18,0,0,0-1.47,1.18.17.17,0,0,1-.12,0,4.18,4.18,0,0,0-4.15,3.28h-1.79A9,9,0,0,1,161.82,164.7Zm-9.13,9.53a.61.61,0,0,1-.61-.61v-.79a.61.61,0,0,1,.61-.61h21.87a.62.62,0,0,1,.61.61v.79a.61.61,0,0,1-.61.61Zm1.6,1H173l-1.17,10.91a3,3,0,0,0-1.07.36,4.89,4.89,0,0,0-2.54.63.53.53,0,0,1-.6,0,6,6,0,0,0-7,0,.51.51,0,0,1-.59,0,5,5,0,0,0-4.47-.19Zm13.22,15.94h-9a2.83,2.83,0,0,1-2.81-2.53l-.07-.61a3.93,3.93,0,0,1,3.83,0,1.56,1.56,0,0,0,1.75-.13,4.94,4.94,0,0,1,5.71,0,1.54,1.54,0,0,0,1.74.13,3.55,3.55,0,0,1,.63-.28,7.65,7.65,0,0,0-1.81,3.43Zm8,1.57a7.08,7.08,0,0,1-3.55,2.09,2.88,2.88,0,0,1-2.68-.73,2.83,2.83,0,0,1-.78-2.37,6.85,6.85,0,0,1,2.14-3.86,2.25,2.25,0,0,1,1.62-.73,4.44,4.44,0,0,1,2.8,1.54c.77.83,2,2.55.45,4.06Zm-.1-5.17a6.64,6.64,0,0,0-1.18-.89l.81-.8a.52.52,0,0,0-.73-.73l-1.1,1.1-.35-.09.18-1.64c1.34-.8,2.84-1.11,3.29-.66S176.21,186.4,175.37,187.6Zm-4.62,4.29-.11.11a.52.52,0,1,0,.73.73l.1-.11a.52.52,0,0,0,0-.73A.51.51,0,0,0,170.75,191.89Zm.85-2.94-.11.11a.52.52,0,0,0,.73.73l.11-.11a.52.52,0,0,0-.73-.73Zm2.09,2.09-.11.11a.51.51,0,0,0,0,.72.5.5,0,0,0,.73,0l.1-.1a.52.52,0,0,0,0-.73A.51.51,0,0,0,173.69,191ZM168,180.16a.5.5,0,1,0-.5-.5A.5.5,0,0,0,168,180.16Zm-8.78,0a.5.5,0,1,0-.49-.5A.5.5,0,0,0,159.23,180.16Z"/></svg>